# xmcd
#
# Track frame offsets:
#	150
#	23110
#	37616
#	50683
#	62500
#	84941
#	106085
#	118576
#	136943
#	153657
#	171203
#	185370
#	207847
#	229548
#
# Disc length: 3256
#
# Revision: 7
# Processed by: cddbd v1.5.1PL0 Copyright (c) Steve Scherf et al.
# Submitted via: FreeRIP 2.51 
# Normalized: r6:TDELIM( - )
#
DISCID=a70cb60e
DTITLE=Various Artist - HMV - Funk Soul and R&B Vol 1
DYEAR=1998
DGENRE=Soul
TTITLE0=James Brown - Sex Machine
TTITLE1=War - Low Rider
TTITLE2=Booker T And The MG's - Green Onion
TTITLE3=Sam and Dave - Soul Man
TTITLE4=Wild Cherry - Play That Funky Music
TTITLE5=Sly and The Family Stone - Thank You
TTITLE6=Jean Knight - Mr. Big Stuff
TTITLE7=Hot Chocolate - You Sexy Thing
TTITLE8=Bill Withers - Use Me
TTITLE9=Barry White - Can't Get Enough Of Your Love
TTITLE10=The O'Jays - Backstabbers
TTITLE11=The Brothers Johnson - Strawberry Letter 23
TTITLE12=Ohio Players - Love Rollercoaster
TTITLE13=Isaac Hayes - Shaft
EXTD=
EXTT0=
EXTT1=
EXTT2=
EXTT3=
EXTT4=
EXTT5=
EXTT6=
EXTT7=
EXTT8=
EXTT9=
EXTT10=
EXTT11=
EXTT12=
EXTT13=
PLAYORDER=
